<?xml version="1.0" encoding="UTF-8"?>
<svg width="36px" height="36px" viewBox="0 0 36 36" version="1.1" xmlns="http://www.w3.org/2000/svg" xmlns:xlink="http://www.w3.org/1999/xlink">
    <!-- Generator: Sketch 53.2 (72643) - https://sketchapp.com -->
    <title>Group 4</title>
    <desc>Created with Sketch.</desc>
    <defs>
        <path d="M2,0 L26,0 C27.1045695,-2.02906125e-16 28,0.8954305 28,2 L28,26 C28,27.1045695 27.1045695,28 26,28 L2,28 C0.8954305,28 2.09738034e-15,27.1045695 0,26 L0,2 C-1.3527075e-16,0.8954305 0.8954305,2.02906125e-16 2,0 Z" id="path-1"></path>
        <filter x="-26.8%" y="-19.6%" width="146.4%" height="146.4%" filterUnits="objectBoundingBox" id="filter-2">
            <feOffset dx="-1" dy="1" in="SourceAlpha" result="shadowOffsetOuter1"></feOffset>
            <feGaussianBlur stdDeviation="2" in="shadowOffsetOuter1" result="shadowBlurOuter1"></feGaussianBlur>
            <feColorMatrix values="0 0 0 0 0   0 0 0 0 0   0 0 0 0 0  0 0 0 0.245684003 0" type="matrix" in="shadowBlurOuter1"></feColorMatrix>
        </filter>
        <rect id="path-3" x="3.16666667" y="3" width="12.6666667" height="12"></rect>
        <mask id="mask-4" maskContentUnits="userSpaceOnUse" maskUnits="objectBoundingBox" x="0" y="0" width="12.6666667" height="12" fill="white">
            <use xlink:href="#path-3"></use>
        </mask>
    </defs>
    <g id="Clusters-&amp;-DCM/DCMR" stroke="none" stroke-width="1" fill="none" fill-rule="evenodd">
        <g id="Level-2" transform="translate(-1341.000000, -255.000000)">
            <g id="Group" transform="translate(1358.500000, 248.500000) rotate(270.000000) translate(-1358.500000, -248.500000) translate(1319.000000, 234.000000)">
                <g id="Group-4">
                    <g id="Rectangle-Copy-6" transform="translate(14.000000, 14.000000) rotate(-90.000000) translate(-14.000000, -14.000000) ">
                        <use fill="black" fill-opacity="1" filter="url(#filter-2)" xlink:href="#path-1"></use>
                        <use fill="#0F76CF" fill-rule="evenodd" xlink:href="#path-1"></use>
                    </g>
                    <g id="Icon/Fit-Selection" transform="translate(4.000000, 5.000000)">
                        <use id="Fit-Selection" stroke="#FFFFFF" mask="url(#mask-4)" stroke-width="2" stroke-dasharray="2,1" xlink:href="#path-3"></use>
                        <path d="M6.33333333,6 L12.6666667,6 L12.6666667,12 L6.33333333,12 L6.33333333,6 Z" id="Fit-Selection-1" fill="#FFFFFF" fill-rule="evenodd"></path>
                    </g>
                </g>
            </g>
        </g>
    </g>
</svg>