<?xml version="1.0" encoding="UTF-8"?>
<svg width="36px" height="36px" viewBox="0 0 36 36" version="1.1" xmlns="http://www.w3.org/2000/svg" xmlns:xlink="http://www.w3.org/1999/xlink">
    <!-- Generator: Sketch 53.2 (72643) - https://sketchapp.com -->
    <title>Group 5</title>
    <desc>Created with Sketch.</desc>
    <defs>
        <path d="M2,0 L26,0 C27.1045695,-2.02906125e-16 28,0.8954305 28,2 L28,26 C28,27.1045695 27.1045695,28 26,28 L2,28 C0.8954305,28 2.09738034e-15,27.1045695 0,26 L0,2 C-1.3527075e-16,0.8954305 0.8954305,2.02906125e-16 2,0 Z" id="path-1"></path>
        <filter x="-26.8%" y="-19.6%" width="146.4%" height="146.4%" filterUnits="objectBoundingBox" id="filter-2">
            <feOffset dx="-1" dy="1" in="SourceAlpha" result="shadowOffsetOuter1"></feOffset>
            <feGaussianBlur stdDeviation="2" in="shadowOffsetOuter1" result="shadowBlurOuter1"></feGaussianBlur>
            <feColorMatrix values="0 0 0 0 0   0 0 0 0 0   0 0 0 0 0  0 0 0 0.245684003 0" type="matrix" in="shadowBlurOuter1"></feColorMatrix>
        </filter>
    </defs>
    <g id="Clusters-&amp;-DCM/DCMR" stroke="none" stroke-width="1" fill="none" fill-rule="evenodd">
        <g id="Level-2" transform="translate(-1342.000000, -202.000000)">
            <g id="Group" transform="translate(1358.500000, 247.500000) rotate(270.000000) translate(-1358.500000, -247.500000) translate(1318.000000, 233.000000)">
                <g id="Group-5" transform="translate(53.000000, 1.000000)">
                    <g id="Rectangle-Copy" transform="translate(14.000000, 14.000000) rotate(-90.000000) translate(-14.000000, -14.000000) ">
                        <use fill="black" fill-opacity="1" filter="url(#filter-2)" xlink:href="#path-1"></use>
                        <use fill="#0F76CF" fill-rule="evenodd" xlink:href="#path-1"></use>
                    </g>
                    <g id="Icon/Fit-All" transform="translate(13.692308, 14.000000) rotate(45.000000) translate(-13.692308, -14.000000) translate(4.000000, 5.000000)" fill="#FFFFFF" fill-rule="nonzero">
                        <path d="M15.0416667,8.25 C15.2560775,8.25 15.4416225,8.32421801 15.5983073,8.47265625 C15.7549921,8.62109449 15.8333333,8.79687398 15.8333333,9 C15.8333333,9.20312602 15.7549921,9.37890551 15.5983073,9.52734375 C15.4416225,9.67578199 15.2560775,9.75 15.0416667,9.75 L10.2916667,9.75 L10.2916667,14.25 C10.2916667,14.453126 10.2133254,14.6289055 10.0566406,14.7773437 C9.89995581,14.925782 9.71441079,15 9.5,15 C9.28558921,15 9.10004419,14.925782 8.94335938,14.7773437 C8.78667456,14.6289055 8.70833333,14.453126 8.70833333,14.25 L8.70833333,9.75 L3.95833333,9.75 C3.74392254,9.75 3.55837752,9.67578199 3.40169271,9.52734375 C3.2450079,9.37890551 3.16666667,9.20312602 3.16666667,9 C3.16666667,8.79687398 3.2450079,8.62109449 3.40169271,8.47265625 C3.55837752,8.32421801 3.74392254,8.25 3.95833333,8.25 L8.70833333,8.25 L8.70833333,3.75 C8.70833333,3.54687398 8.78667456,3.37109449 8.94335938,3.22265625 C9.10004419,3.07421801 9.28558921,3 9.5,3 C9.71441079,3 9.89995581,3.07421801 10.0566406,3.22265625 C10.2133254,3.37109449 10.2916667,3.54687398 10.2916667,3.75 L10.2916667,8.25 L15.0416667,8.25 Z M8.14029138,5.55558116 C7.85326719,5.82749882 7.37296797,5.81334415 7.06751307,5.52396582 C6.76205816,5.23458749 6.74711712,4.77956718 7.03414132,4.50764952 L8.98029672,2.66392335 C9.26732092,2.39200569 9.74762013,2.40616036 10.053075,2.6955387 L11.9324869,4.47603418 C12.2379418,4.76541251 12.2528829,5.22043282 11.9658587,5.49235048 C11.6788345,5.76426814 11.1985353,5.75011346 10.8930804,5.46073513 L9.5667435,4.20420547 L8.14029138,5.55558116 Z M8.14029138,13.4444188 C7.85326719,13.1725012 7.37296797,13.1866558 7.06751307,13.4760342 C6.76205816,13.7654125 6.74711712,14.2204328 7.03414132,14.4923505 L8.98029672,16.3360766 C9.26732092,16.6079943 9.74762013,16.5938396 10.053075,16.3044613 L11.9324869,14.5239658 C12.2379418,14.2345875 12.2528829,13.7795672 11.9658587,13.5076495 C11.6788345,13.2357319 11.1985353,13.2498865 10.8930804,13.5392649 L9.5667435,14.7957945 L8.14029138,13.4444188 Z M14.191331,10.288145 C13.9043068,10.5600627 13.9192478,11.015083 14.2247027,11.3044613 C14.5301577,11.5938396 15.0104569,11.6079943 15.2974811,11.3360766 L17.2436365,9.49235048 C17.5306607,9.22043282 17.5157196,8.76541251 17.2102647,8.47603418 L15.3308528,6.6955387 C15.0253979,6.40616036 14.5450987,6.39200569 14.2580745,6.66392335 C13.9710503,6.93584101 13.9859913,7.39086132 14.2914462,7.68023965 L15.6177831,8.93676931 L14.191331,10.288145 Z M4.80866901,10.288145 C5.0956932,10.5600627 5.08075216,11.015083 4.77529726,11.3044613 C4.46984235,11.5938396 3.98954314,11.6079943 3.70251894,11.3360766 L1.75636354,9.49235048 C1.46933934,9.22043282 1.48428038,8.76541251 1.78973529,8.47603418 L3.66914719,6.6955387 C3.9746021,6.40616036 4.45490131,6.39200569 4.7419255,6.66392335 C5.0289497,6.93584101 5.01400866,7.39086132 4.70855375,7.68023965 L3.38221688,8.93676931 L4.80866901,10.288145 Z" id="Fit-All" transform="translate(9.500000, 9.000000) rotate(45.000000) translate(-9.500000, -9.000000) "></path>
                    </g>
                </g>
            </g>
        </g>
    </g>
</svg>